<svg width="16" height="16" viewBox="0 0 16 16" fill="none" xmlns="http://www.w3.org/2000/svg">
<path d="M5.29306 1.63605C5.10559 1.82358 5.00027 2.07788 5.00027 2.34305C5.00027 2.60821 5.10559 2.86252 5.29306 3.05005L10.2431 8.00005L5.29306 12.95C5.1109 13.1387 5.01011 13.3913 5.01239 13.6535C5.01467 13.9156 5.11983 14.1665 5.30524 14.3519C5.49065 14.5373 5.74146 14.6424 6.00366 14.6447C6.26586 14.647 6.51846 14.5462 6.70706 14.364L12.3641 8.70705C12.5515 8.51952 12.6568 8.26521 12.6568 8.00005C12.6568 7.73488 12.5515 7.48058 12.3641 7.29305L6.70706 1.63605C6.51953 1.44858 6.26523 1.34326 6.00006 1.34326C5.7349 1.34326 5.48059 1.44858 5.29306 1.63605Z" fill="#868686"/>
</svg>
